<svg xmlns="http://www.w3.org/2000/svg" viewBox="0 0 512 512" width="100%" height="100%">
  <!-- Background Shield Container -->
  <path d="M256 32C160 64 64 64 64 64v160c0 120 80 220 192 256 112-36 192-136 192-256V64s-96 0-192-32z" fill="#0056b3"/>
  
  <!-- Inner Shield Contrast Border -->
  <path d="M256 64C175 91 96 91 96 91v133c0 100 64 183 160 214 96-31 160-114 160-214V91s-79 0-160-27z" fill="#ffffff"/>
  
  <!-- Target Crosshair Layer (Predictor Feature) -->
  <circle cx="256" cy="220" r="80" fill="none" stroke="#28a745" stroke-width="12" stroke-dasharray="16 12"/>
  <circle cx="256" cy="220" r="45" fill="none" stroke="#28a745" stroke-width="8"/>
  <path d="M256 120v40M256 260v40M156 220h40M296 220h40" stroke="#28a745" stroke-width="12" stroke-linecap="round"/>

  <!-- Medical Stethoscope Core (Medical/Dental Streams) -->
  <path d="M180 160v40c0 42 34 76 76 76s76-34 76-76v-40" fill="none" stroke="#0056b3" stroke-width="16" stroke-linecap="round"/>
  <path d="M256 276v60" fill="none" stroke="#0056b3" stroke-width="16"/>
  
  <!-- Stethoscope Chestpiece (Bottom) -->
  <circle cx="256" cy="360" r="28" fill="#28a745" stroke="#0056b3" stroke-width="10"/>
  <circle cx="256" cy="360" r="10" fill="#ffffff"/>
  
  <!-- Ear Tips (Top) -->
  <circle cx="180" cy="150" r="12" fill="#0056b3"/>
  <circle cx="332" cy="150" r="12" fill="#0056b3"/>
</svg>
